<?xml version="1.0" standalone="no"?>
<!DOCTYPE svg PUBLIC "-//W3C//DTD SVG 20010904//EN"
 "http://www.w3.org/TR/2001/REC-SVG-20010904/DTD/svg10.dtd">
<svg version="1.0" xmlns="http://www.w3.org/2000/svg"
 width="512.000000pt" height="512.000000pt" viewBox="0 0 512.000000 512.000000"
 preserveAspectRatio="xMidYMid meet">

<g transform="translate(0.000000,512.000000) scale(0.100000,-0.100000)"
fill="#000000" stroke="none">
<path d="M665 5109 c-191 -28 -369 -128 -488 -274 -63 -77 -131 -215 -154
-313 -17 -73 -18 -181 -18 -1962 0 -2128 -7 -1952 79 -2127 100 -202 272 -343
495 -406 74 -21 94 -21 829 -25 l752 -3 0 911 0 910 -325 0 -325 0 0 370 0
370 324 0 324 0 4 393 c4 387 5 393 31 492 32 122 109 279 176 361 129 159
339 271 570 304 106 16 438 8 611 -14 69 -9 131 -18 138 -21 9 -3 12 -76 12
-318 l0 -315 -212 -4 c-182 -5 -223 -9 -280 -27 -135 -43 -216 -144 -238 -296
-5 -38 -10 -179 -10 -312 l0 -243 355 0 c293 0 355 -2 355 -14 0 -12 -91 -614
-105 -694 l-6 -32 -299 0 -300 0 0 -910 0 -911 753 3 c735 4 754 4 829 25 223
63 394 204 494 406 86 175 79 -1 79 2127 0 2128 7 1952 -79 2127 -100 202
-270 342 -494 406 l-77 22 -1870 1 c-1031 1 -1897 -2 -1930 -7z"/>
</g>
</svg>
